# xmcd
#
# Track frame offsets: 
#        150
#        19727
#        32245
#        47317
#        61047
#        73585
#        89095
#        104295
#        116605
#        131172
#        148602
#        161892
#        175867
#        189217
#        202900
#        217657
#        233277
#        245357
#        258765
#
# Disc length: 3639 seconds
#
# Revision: 3
# Processed by: cddbd v1.5.2PL0 Copyright (c) Steve Scherf et al.
# Submitted via: ExactAudioCopyFreeDBPlugin 1.0
#
DISCID=f80e3513
DTITLE=Various Artist - Blues De-Luxe CD1 Acoustic
DYEAR=2000
DGENRE=Blues
TTITLE0=Son House - Death Letter
TTITLE1=Robert Johnson - Traveling riverside blues
TTITLE2=Blind Willie Johnson - Dark was the night
TTITLE3=Keb Mo - Love Blues
TTITLE4=Big Bill Broonzy - I cant be satisfied
TTITLE5=Tampa Red - Black Angel Blues
TTITLE6=Alberta Hunter - Amtrak Blues
TTITLE7=Champion Jack Dupree - Junker Blues
TTITLE8=Blind Willie McTell - Southern can is mine
TTITLE9=Alvin Youngblood Hart - Big mamas door
TTITLE10=Mississippi John Hurt - Aint no tellin
TTITLE11=Blind Boy Fuller - Rag mama rag
TTITLE12=Bukka White - Black train blues
TTITLE13=Leadbelly - Fort worth and dalls blues
TTITLE14=Lonnie Johnson - Guitar Blues
TTITLE15=Bessie Smith - Careless love blues
TTITLE16=Brownie McGhee (As Blind Boy Fuller No.2) - Key to the highwa
TTITLE16=y 70 no. 1
TTITLE17=Josh White - New milk cow blues
TTITLE18=Kansas Joe And Memphis Minnie - When the levee breaks
EXTD=
EXTT0=
EXTT1=
EXTT2=
EXTT3=
EXTT4=
EXTT5=
EXTT6=
EXTT7=
EXTT8=
EXTT9=
EXTT10=
EXTT11=
EXTT12=
EXTT13=
EXTT14=
EXTT15=
EXTT16=
EXTT17=
EXTT18=
PLAYORDER=
